#!OML:ASF I:\Actors\actors\Patient Classification 2\Patient 1\Session 1\actor1.ASF
:FULLY-SPECIFIED
:DEGREES
434
root -0.77221 18.5754 5.78288 -2.98886 -11.5255 -4.25569
lowerback 15.0439 -1.54871 5.42061
upperback 2.88523 -0.99731 3.56695
thorax -5.39433 -0.563477 0.906326
lowerneck -3.17454 11.9099 15.6496
upperneck 33.6308 17.4109 -7.72919
head 14.2137 8.78555 -3.246
rclavicle -4.2043e-014 -2.06736e-014
rhumerus -56.8785 -21.9466 -27.6404
rradius 76.5691
rwrist -3.04559
rhand -18.7826 -25.2087
rfingers 7.12502
rthumb 7.515 -55.0552
lclavicle -4.2043e-014 -2.06736e-014
lhumerus -39.9693 4.89882 59.4625
lradius 53.1228
lwrist 8.06694
lhand -10.8384 -26.6565
lfingers 7.12502
lthumb 15.1762 2.76697
rfemur 10.7239 7.42649 18.9277
rtibia -6.36111e-015
rfoot -16.1819 -9.74634
rtoes -17.4565
lfemur -0.670971 2.61024 -9.6053
ltibia 26.429
lfoot -23.0199 10.7589
ltoes -57.9962
435
root -0.77256 18.5815 5.77609 -2.81491 -11.3554 -4.28721
lowerback 15.0648 -1.55994 5.39161
upperback 2.95109 -1.02135 3.52393
thorax -5.33644 -0.573442 0.880677
lowerneck -3.17836 11.4543 15.0698
upperneck 34.0013 16.8485 -7.75293
head 14.2246 8.46712 -3.281
rclavicle 2.98177e-016 -1.90833e-014
rhumerus -56.3972 -21.6842 -26.6771
rradius 78.4334
rwrist -3.1017
rhand -19.0973 -24.9819
rfingers 7.12502
rthumb 7.21121 -54.839
lclavicle 2.98177e-016 -1.90833e-014
lhumerus -39.94 4.95506 58.1023
lradius 53.8225
lwrist 8.77473
lhand -10.7079 -26.3672
lfingers 7.12502
lthumb 15.3019 3.04675
rfemur 10.5285 7.2934 18.9362
rtibia 1.59028e-015
rfoot -16.1394 -9.85088
rtoes -17.6157
lfemur -0.938714 2.64429 -9.55438
ltibia 26.4353
lfoot -22.8799 10.6379
ltoes -58.0171
436
root -0.773487 18.5874 5.76878 -2.71062 -11.1947 -4.31887
lowerback 15.13 -1.57637 5.35949
upperback 3.05674 -1.05057 3.50075
thorax -5.26006 -0.585254 0.879189
lowerneck -3.5399 10.8615 14.0644
upperneck 34.6348 16.0452 -7.54606
head 14.3262 7.99993 -3.17854
rclavicle -1.10325e-014 -1.74931e-014
rhumerus -55.8796 -21.4514 -25.7001
rradius 80.3933
rwrist -3.11853
rhand -19.5096 -25.3602
rfingers 7.12502
rthumb 6.81319 -55.2306
lclavicle -1.10325e-014 -1.74931e-014
lhumerus -39.884 5.12954 56.8063
lradius 54.8163
lwrist 9.51435
lhand -10.5491 -26.1683
lfingers 7.12502
lthumb 15.4548 3.2339
rfemur 10.4032 7.17072 18.9572
rtibia -9.54166e-015
rfoot -16.1376 -9.94399
rtoes -17.6365
lfemur -1.13838 2.5801 -9.52085
ltibia 26.4518
lfoot -22.7784 10.5778
ltoes -58.0029
437
root -0.774911 18.5916 5.76074 -2.6663 -11.0227 -4.33941
lowerback 15.2317 -1.58706 5.30627
upperback 3.16489 -1.07182 3.49285
thorax -5.20008 -0.593062 0.90519
lowerneck -4.19194 10.0615 12.5705
upperneck 35.5725 14.9086 -7.04043
head 14.5171 7.34455 -2.91666
rclavicle 3.08116e-014 5.56597e-015
rhumerus -55.3318 -21.1816 -24.6764
rradius 82.3832
rwrist -3.07717
rhand -20.1763 -26.3691
rfingers 7.12502
rthumb 6.16958 -56.2592
lclavicle 3.08116e-014 5.56597e-015
lhumerus -39.8528 5.38959 55.6099
lradius 56.1823
lwrist 10.3344
lhand -10.4214 -26.1539
lfingers 7.12502
lthumb 15.5778 3.23875
rfemur 10.3531 7.0381 18.9761
rtibia 1.59028e-014
rfoot -16.1863 -9.98975
rtoes -17.3973
lfemur -1.27942 2.41331 -9.5113
ltibia 26.4815
lfoot -22.7283 10.5361
ltoes -57.8929
438
root -0.775919 18.5943 5.7515 -2.64854 -10.8691 -4.36174
lowerback 15.3406 -1.61147 5.25151
upperback 3.2383 -1.10914 3.47628
thorax -5.18139 -0.60969 0.927087
lowerneck -4.61311 9.13966 11.1089
upperneck 36.5118 13.6856 -6.71555
head 14.7037 6.63934 -2.7513
rclavicle -3.16068e-014 1.82882e-014
rhumerus -54.6954 -20.8814 -23.7239
rradius 84.2272
rwrist -3.14783
rhand -21.009 -26.2797
rfingers 7.12502
rthumb 5.36566 -56.1918
lclavicle -3.16068e-014 1.82882e-014
lhumerus -39.9358 5.52428 54.3635
lradius 57.9515
lwrist 11.4609
lhand -10.4333 -26.4589
lfingers 7.12502
lthumb 15.5664 2.93465
rfemur 10.3336 6.92379 19.0037
rtibia -2.54444e-014
rfoot -16.2482 -10.0206
rtoes -17.0773
lfemur -1.38485 2.23837 -9.49731
ltibia 26.5095
lfoot -22.7136 10.4904
ltoes -57.7586
439
root -0.776664 18.5962 5.74194 -2.63628 -10.7704 -4.40406
lowerback 15.4294 -1.63929 5.23467
upperback 3.30824 -1.1473 3.44513
thorax -5.15638 -0.627293 0.911991
lowerneck -4.79733 8.17328 9.82345
upperneck 37.3541 12.4906 -6.68547
head 14.8721 5.93887 -2.73329
rclavicle -1.19271e-014 -1.35174e-014
rhumerus -53.9621 -20.5558 -22.7563
rradius 85.9196
rwrist -3.2215
rhand -21.8543 -25.2631
rfingers 7.12502
rthumb 4.54945 -55.1942
lclavicle -1.19271e-014 -1.35174e-014
lhumerus -40.0186 5.50022 53.0647
lradius 60.0233
lwrist 12.8848
lhand -10.8661 -26.8668
lfingers 7.12502
lthumb 15.1495 2.5587
rfemur 10.3066 6.8632 19.0584
rtibia 3.18055e-015
rfoot -16.2742 -10.0763
rtoes -16.8505
lfemur -1.4692 2.17134 -9.44965
ltibia 26.5257
lfoot -22.6458 10.4833
ltoes -57.7311
440
root -0.777992 18.599 5.73309 -2.64181 -10.7248 -4.39052
lowerback 15.5077 -1.62179 5.1635
upperback 3.37928 -1.13666 3.39255
thorax -5.12277 -0.620243 0.894617
lowerneck -4.96827 7.11265 8.428
upperneck 38.2207 11.1572 -6.59246
head 15.0472 5.16624 -2.68493
rclavicle -1.2921e-014 3.81667e-014
rhumerus -53.2708 -20.2478 -21.577
rradius 87.5547
rwrist -2.95252
rhand -22.5641 -24.8857
rfingers 7.12502
rthumb 3.86407 -54.8304
lclavicle -1.2921e-014 3.81667e-014
lhumerus -39.8948 5.31884 51.8315
lradius 62.1478
lwrist 14.3858
lhand -11.7391 -27.0702
lfingers 7.12502
lthumb 14.3084 2.41675
rfemur 10.2769 6.85876 19.0577
rtibia 3.81667e-014
rfoot -16.2757 -10.1717
rtoes -16.914
lfemur -1.52066 2.13835 -9.46469
ltibia 26.5195
lfoot -22.5486 10.5472
ltoes -57.685
441
root -0.784281 18.6016 5.72525 -2.68074 -10.6243 -4.32316
lowerback 15.5712 -1.58938 4.99191
upperback 3.44519 -1.1238 3.32993
thorax -5.08514 -0.61087 0.922229
lowerneck -5.08761 6.00154 6.87569
upperneck 39.1271 9.71352 -6.30506
head 15.2293 4.34328 -2.53633
rclavicle 7.05686e-015 3.02153e-014
rhumerus -52.6454 -19.9637 -20.4164
rradius 89.2891
rwrist -2.79498
rhand -23.1586 -25.0093
rfingers 7.12502
rthumb 3.28996 -54.9637
lclavicle 7.05686e-015 3.02153e-014
lhumerus -39.5783 4.93715 50.6214
lradius 64.2767
lwrist 15.7735
lhand -12.5843 -26.9938
lfingers 7.12502
lthumb 13.4939 2.54901
rfemur 10.2947 6.80001 19.0207
rtibia 1.74931e-014
rfoot -16.2874 -10.2673
rtoes -17.1752
lfemur -1.52597 2.03088 -9.52158
ltibia 26.4828
lfoot -22.4896 10.5982
ltoes -57.6093
442
root -0.79565 18.6027 5.71883 -2.73302 -10.4598 -4.28934
lowerback 15.5882 -1.59745 4.78365
upperback 3.53908 -1.17267 3.316
thorax -4.99212 -0.630496 1.03245
lowerneck -5.08433 4.91785 5.26088
upperneck 39.9043 8.33976 -6.07343
head 15.3697 3.53373 -2.37975
rclavicle -5.46658e-015 2.70347e-014
rhumerus -51.817 -19.7242 -19.4223
rradius 91.0372
rwrist -2.89768
rhand -23.7531 -25.4579
rfingers 7.12502
rthumb 2.71576 -55.4204
lclavicle -5.46658e-015 2.70347e-014
lhumerus -39.1995 4.58516 49.3468
lradius 66.5144
lwrist 17.0046
lhand -12.9765 -26.6911
lfingers 7.12502
lthumb 13.1158 2.87641
rfemur 10.3621 6.67224 19.0406
rtibia 1.90833e-014
rfoot -16.3282 -10.3098
rtoes -17.2287
lfemur -1.49873 1.93402 -9.50549
ltibia 26.4241
lfoot -22.4244 10.5801
ltoes -57.6265
443
root -0.803253 18.6041 5.71131 -2.76067 -10.4158 -4.28763
lowerback 15.5913 -1.61046 4.61209
upperback 3.65347 -1.22315 3.32913
thorax -4.86954 -0.651305 1.15021
lowerneck -4.94958 3.87303 3.67279
upperneck 40.4898 7.06322 -5.99278
head 15.4421 2.75129 -2.2675
rclavicle -1.31198e-014 -1.27222e-014
rhumerus -50.6749 -19.6186 -18.4346
rradius 92.5332
rwrist -2.83392
rhand -24.0954 -25.8223
rfingers 7.12502
rthumb 2.38525 -55.7887
lclavicle -1.31198e-014 -1.27222e-014
lhumerus -38.8143 4.47773 47.9943
lradius 68.8178
lwrist 18.2183
lhand -13.0973 -26.5173
lfingers 7.12502
lthumb 12.9994 3.05773
rfemur 10.3853 6.66499 19.0833
rtibia 6.36111e-015
rfoot -16.3491 -10.3745
rtoes -17.261
lfemur -1.46727 1.90278 -9.47062
ltibia 26.3637
lfoot -22.3715 10.6041
ltoes -57.6391
444
root -0.807539 18.6051 5.70076 -2.77076 -10.4703 -4.28041
lowerback 15.6491 -1.55423 4.54902
upperback 3.76088 -1.16698 3.22445
thorax -4.78689 -0.621685 1.06291
lowerneck -4.80833 2.79724 2.32056
upperneck 41.0152 5.66773 -5.86183
head 15.5171 1.95759 -2.18348
rclavicle -1.35174e-014 2.78299e-014
rhumerus -49.735 -19.6732 -17.4124
rradius 93.9191
rwrist -2.68925
rhand -24.2027 -25.3685
rfingers 7.12502
rthumb 2.28159 -55.3361
lclavicle -1.35174e-014 2.78299e-014
lhumerus -38.1658 4.2832 46.5192
lradius 71.142
lwrist 19.5974
lhand -13.3591 -26.7052
lfingers 7.12502
lthumb 12.747 2.88574
rfemur 10.3547 6.75754 19.114
rtibia 3.18055e-014
rfoot -16.327 -10.4791
rtoes -17.5026
lfemur -1.4558 1.8997 -9.4601
ltibia 26.3172
lfoot -22.3255 10.6501
ltoes -57.5642
